<?xml version="1.0" encoding="UTF-8"?>
<svg id="Layer_1" xmlns="http://www.w3.org/2000/svg" version="1.1" viewBox="0 0 432 194.4">
  <path d="M33.111,94.084c-15.139,0-24.699,7.919-24.699,7.919l5.234,9.399s8.219-6.484,18.427-6.484c8.348,0,14.491,3.699,14.491,14.664v1.175h-2.855c-11.117,0-39.838.914-39.838,23.019,0,13.359,11.117,20.364,22.449,20.364,15.788,0,21.152-13.228,21.152-13.228h.226s-.26,2.298-.26,5.347v6.452h11.8v-42.477c0-16.927-9.386-26.152-26.126-26.152ZM46.564,132.513c0,9.964-6.992,21.371-17.831,21.371-8.304,0-12.543-5.288-12.543-10.751,0-12.062,17.437-12.761,27.052-12.761h3.321v2.141ZM111.584,93.639c-16.813,0-22.461,12.26-22.461,12.26h-.426s.259-2.245.259-4.834v-5.654h-11.363v93.087h12.674v-29.718h-.042c0-3.349-.254-5.681-.254-5.681h.16s5.823,11.034,20.491,11.034c17.47,0,30.298-13.836,30.298-35.246,0-20.885-11.384-35.246-29.335-35.246ZM108.662,153.269c-12.28,0-18.88-11.931-18.88-23.905,0-17.131,9.221-24.168,19.273-24.168,11.101,0,18.88,9.44,18.88,24.037,0,15.252-8.697,24.037-19.273,24.037ZM189.641,94.492c1.751,0,3.327.262,3.327.262v13.023s-1.748-.393-3.715-.393c-8.172,0-15.689,5.812-18.748,15.777-1.18,3.846-1.573,7.954-1.573,12.062v27.489h-12.674v-67.302h12.237v11.581c0,2.753-.263,5.026-.263,5.026h.263c3.021-9.833,10.814-17.525,21.146-17.525ZM207.39,95.41h12.674v67.302h-12.674v-67.302ZM341.995,119.849v42.863h-13.111v-40.297c.171-9.44-1.664-16.869-11.716-16.869-9.352,0-16.389,7.954-18.748,17.131-.656,2.797-.918,5.856-1.002,9.309v30.289h-12.674v-40.207c0-8.784-1.307-16.869-11.593-16.869-9.762,0-16.605,8.085-19.089,17.656-.654,2.622-.784,5.681-.784,8.741v30.679l-12.674.437v-67.302h12.237v9.28c0,2.614-.262,4.879-.262,4.879l.262-.044c3.192-7.797,12.549-15.333,22.999-15.333,11.237,0,17.84,5.14,20.069,15.202h.262c3.717-8.059,12.942-15.202,23.786-15.202,15.041,0,22.037,8.581,22.037,25.657ZM392.118,93.877c-19.928,0-36.055,14.772-36.055,35.05,0,20.453,16.083,35.312,36.055,35.312s36.011-14.859,36.011-35.312c0-20.322-16.083-35.05-36.011-35.05ZM392.118,153.138c-12.543,0-22.988-10.095-22.988-24.168,0-13.985,10.445-23.905,22.988-23.905,12.674,0,22.944,9.964,22.944,23.905,0,14.072-10.314,24.168-22.944,24.168ZM222.595,68.617c0,4.676-3.802,8.478-8.478,8.478s-8.478-3.802-8.478-8.478,3.802-8.478,8.478-8.478,8.478,3.802,8.478,8.478ZM269.75,24.914c0-10.489,8.522-19.011,19.011-19.011s18.967,8.522,19.011,19.011c0,10.489-8.522,19.011-19.011,19.011s-19.011-8.522-19.011-19.011ZM241.387,54.544c-7.167,0-13.023-5.812-13.023-13.023s5.856-13.067,13.023-13.023c7.167,0,13.023,5.812,13.023,13.023,0,7.167-5.812,13.023-13.023,13.023ZM352.305,67c-13.242,0-23.949-10.707-23.949-23.905s10.707-23.905,23.949-23.949c13.198,0,23.905,10.751,23.905,23.949s-10.707,23.905-23.905,23.905ZM418.037,94.536h-2.185v-.874h5.244v.874h-2.185v5.681h-.874v-5.681ZM422.579,100.217h-1.181l.542-6.555h.949l1.492,3.526c.136.362.316.859.316.859,0,0,.181-.497.316-.859l1.492-3.526h.949l.543,6.555h-.904l-.316-4.114v-.784s-.091.568-.222.918l-1.267,2.669h-.787l-1.267-2.669c-.131-.35-.35-.961-.35-.961,0,0,.044.568,0,.961l-.306,3.98Z" fill="#141516"/>
</svg>
